# Blender 3.1.0
# www.blender.org
o Cube
v 0.500000 -0.500000 -0.500000
v 0.500000 -0.500000 0.500000
v -0.500000 0.500000 -0.500000
v -0.500000 -0.500000 -0.500000
v -0.500000 -0.500000 0.500000
vn -0.0000 0.3536 0.3536
vn -0.5000 -0.0000 -0.0000
vn -0.0000 -0.5000 -0.0000
vn 0.3536 0.3536 -0.0000
vn -0.0000 -0.0000 -0.5000
vt 0.375000 0.500000
vt 0.375000 0.750000
vt 0.625000 1.000000
vt 0.625000 0.250000
vt 0.625000 0.750000
vt 0.625000 0.500000
vt 0.125000 0.500000
vt 0.375000 0.250000
vt 0.375000 1.000000
vt 0.375000 0.000000
vt 0.125000 0.750000
s 0
f 2/2/1 3/3/1 5/9/1
f 5/10/2 3/4/2 4/8/2
f 1/1/3 5/11/3 4/7/3
f 1/1/4 3/5/4 2/2/4
f 4/8/5 3/6/5 1/1/5
f 1/1/3 2/2/3 5/11/3
